<?xml version="1.0" encoding="UTF-8" standalone="no"?>
<svg width="81px" height="81px" viewBox="0 0 81 81" version="1.1" xmlns="http://www.w3.org/2000/svg" xmlns:xlink="http://www.w3.org/1999/xlink">
    <!-- Generator: Sketch 3.6.1 (26313) - http://www.bohemiancoding.com/sketch -->
    <title>logo</title>
    <desc>Created with Sketch.</desc>
    <defs></defs>
    <g id="Page-1" stroke="none" stroke-width="1" fill="none" fill-rule="evenodd">
        <g id="Broad-City-v1---Desktop-HD" transform="translate(-680.000000, 0.000000)">
            <g id="screen" transform="translate(204.000000, 0.000000)">
                <g id="logo" transform="translate(476.000000, 0.000000)">
                    <rect id="logo-bg" fill="#DEDF3D" x="0" y="0" width="81" height="81"></rect>
                    <g id="cc-logo" transform="translate(19.000000, 18.000000)" fill="#222D33">
                        <path d="M20.553022,33.2041558 C17.5566434,33.2041558 15.0039417,32.1496209 12.8948402,30.0405195 C11.8330167,28.978696 11.04757,27.8150713 10.5384766,26.5496104 C10.0293831,25.2841495 9.76029489,23.9023452 9.73120384,22.4041558 C9.70211278,20.9496031 9.97483733,19.5641624 10.5493857,18.2477922 C11.123934,16.931422 11.9093807,15.7750699 12.9057493,14.7787013 C13.9021179,13.7823327 15.05847,12.996886 16.3748402,12.4223377 C17.6912104,11.8477893 19.0839238,11.5677921 20.553022,11.5823377 C22.4875771,11.6114287 24.2984681,12.1132419 25.9857493,13.0877922 C27.7021215,14.0914336 29.0330173,15.4368747 29.9784766,17.1241558 L25.7457493,19.4805195 C25.2075648,18.5496057 24.4802993,17.8114313 23.5639311,17.265974 C22.6475629,16.7205168 21.6439366,16.4477922 20.553022,16.4477922 C18.923923,16.4477922 17.5275733,17.0296046 16.3639311,18.1932468 C15.2002889,19.3568889 14.6184766,20.7605113 14.6184766,22.4041558 C14.6184766,24.0478004 15.1930163,25.4441501 16.3421129,26.5932468 C17.5057551,27.7568889 18.9093774,28.3387013 20.553022,28.3387013 C21.6584821,28.3387013 22.6766537,28.0587041 23.6075675,27.4987013 C24.5384812,26.9386985 25.2657467,26.1787061 25.7893857,25.2187013 L30.0657493,27.4877922 C29.1348355,29.247801 27.8112124,30.6441507 26.0948402,31.6768831 C24.4221046,32.69507 22.5748503,33.2041558 20.553022,33.2041558 L20.553022,33.2041558 Z M20.5966584,44.745974 C16.4657286,44.745974 12.647585,43.6987118 9.14211293,41.6041558 C5.63664085,39.5095999 2.90212274,36.6514467 0.938476562,33.0296104 L5.23665838,30.7168831 C6.74939322,33.5387154 8.880281,35.7641477 11.6293857,37.3932468 C14.4075814,39.0368913 17.3966424,39.8587013 20.5966584,39.8587013 C23.7384923,39.8587013 26.6548267,39.0805273 29.3457493,37.5241558 C32.0366718,35.98233 34.160287,33.8659875 35.7166584,31.1750649 C37.2875753,28.4986879 38.073022,25.5750808 38.073022,22.4041558 C38.073022,19.262322 37.2875753,16.3459875 35.7166584,13.6550649 C34.160287,10.9641424 32.0366718,8.84052726 29.3457493,7.28415584 C26.6548267,5.7132389 23.7384923,4.92779221 20.5966584,4.92779221 C17.4111879,4.92779221 14.4584902,5.73505686 11.7384766,7.34961039 C9.00391744,8.94961839 6.865757,11.1314148 5.32393111,13.8950649 L1.06938565,11.5387013 C3.03303184,8.00413817 5.76754994,5.21143883 9.27302202,3.16051948 C12.7784941,1.09505461 16.5530018,0.0623376623 20.5966584,0.0623376623 C23.6221281,0.0623376623 26.5093719,0.651422681 29.2584766,1.82961039 C32.0221267,3.0077981 34.4002848,4.60050944 36.393022,6.60779221 C38.4003048,8.60052944 39.9930161,10.9786875 41.1712038,13.7423377 C42.3493915,16.4914423 42.9384766,19.3786862 42.9384766,22.4041558 C42.9384766,25.4296255 42.3493915,28.324142 41.1712038,31.0877922 C40.0075617,33.8368969 38.4148503,36.2077822 36.393022,38.2005195 C34.4002848,40.2078022 32.0221267,41.8005136 29.2584766,42.9787013 C26.5093719,44.156889 23.6221281,44.745974 20.5966584,44.745974 L20.5966584,44.745974 Z" id="shapes"></path>
                    </g>
                </g>
            </g>
        </g>
    </g>
</svg>